# Blender 4.5.2 LTS
# www.blender.org
mtllib Cube.mtl
o Cube.001
v 0.022500 0.022500 -0.022500
v 0.005400 -0.000000 -0.022500
v 0.022500 -0.022500 -0.022500
v 0.005279 0.000450 -0.022500
v 0.022500 0.022500 0.022500
v 0.004950 0.000779 -0.022500
v 0.022500 -0.022500 0.022500
v 0.004500 0.000900 -0.022500
v -0.022500 0.022500 -0.022500
v 0.004050 0.000779 -0.022500
v -0.022500 -0.022500 -0.022500
v 0.003721 0.000450 -0.022500
v -0.022500 0.022500 0.022500
v 0.003600 -0.000000 -0.022500
v -0.022500 -0.022500 0.022500
v 0.003721 -0.000450 -0.022500
v 0.004050 -0.000779 -0.022500
v 0.004500 -0.000900 -0.022500
v 0.004950 -0.000779 -0.022500
v 0.005279 -0.000450 -0.022500
v 0.005216 -0.000000 -0.023898
v 0.005100 0.000450 -0.023866
v 0.004781 0.000779 -0.023781
v 0.004347 0.000900 -0.023665
v 0.003912 0.000779 -0.023548
v 0.003594 0.000450 -0.023463
v 0.003477 -0.000000 -0.023432
v 0.003594 -0.000450 -0.023463
v 0.003912 -0.000779 -0.023548
v 0.004347 -0.000900 -0.023665
v 0.004781 -0.000779 -0.023781
v 0.005100 -0.000450 -0.023866
v 0.004677 -0.000000 -0.025200
v 0.004572 0.000450 -0.025140
v 0.004287 0.000779 -0.024975
v 0.003897 0.000900 -0.024750
v 0.003507 0.000779 -0.024525
v 0.003222 0.000450 -0.024360
v 0.003118 -0.000000 -0.024300
v 0.003222 -0.000450 -0.024360
v 0.003507 -0.000779 -0.024525
v 0.003897 -0.000900 -0.024750
v 0.004287 -0.000779 -0.024975
v 0.004572 -0.000450 -0.025140
v 0.003818 -0.000000 -0.026318
v 0.003733 0.000450 -0.026233
v 0.003500 0.000779 -0.026000
v 0.003182 0.000900 -0.025682
v 0.002864 0.000779 -0.025364
v 0.002631 0.000450 -0.025131
v 0.002546 -0.000000 -0.025046
v 0.002631 -0.000450 -0.025131
v 0.002864 -0.000779 -0.025364
v 0.003182 -0.000900 -0.025682
v 0.003500 -0.000779 -0.026000
v 0.003733 -0.000450 -0.026233
v 0.002700 -0.000000 -0.027177
v 0.002640 0.000450 -0.027072
v 0.002475 0.000779 -0.026787
v 0.002250 0.000900 -0.026397
v 0.002025 0.000779 -0.026007
v 0.001860 0.000450 -0.025722
v 0.001800 -0.000000 -0.025618
v 0.001860 -0.000450 -0.025722
v 0.002025 -0.000779 -0.026007
v 0.002250 -0.000900 -0.026397
v 0.002475 -0.000779 -0.026787
v 0.002640 -0.000450 -0.027072
v 0.001398 -0.000000 -0.027716
v 0.001366 0.000450 -0.027600
v 0.001281 0.000779 -0.027281
v 0.001165 0.000900 -0.026847
v 0.001048 0.000779 -0.026412
v 0.000963 0.000450 -0.026094
v 0.000932 -0.000000 -0.025977
v 0.000963 -0.000450 -0.026094
v 0.001048 -0.000779 -0.026412
v 0.001165 -0.000900 -0.026847
v 0.001281 -0.000779 -0.027281
v 0.001366 -0.000450 -0.027600
v 0.000000 -0.000000 -0.027900
v 0.000000 0.000450 -0.027779
v 0.000000 0.000779 -0.027450
v 0.000000 0.000900 -0.027000
v 0.000000 0.000779 -0.026550
v 0.000000 0.000450 -0.026221
v 0.000000 -0.000000 -0.026100
v 0.000000 -0.000450 -0.026221
v 0.000000 -0.000779 -0.026550
v 0.000000 -0.000900 -0.027000
v 0.000000 -0.000779 -0.027450
v 0.000000 -0.000450 -0.027779
v -0.001398 -0.000000 -0.027716
v -0.001366 0.000450 -0.027600
v -0.001281 0.000779 -0.027281
v -0.001165 0.000900 -0.026847
v -0.001048 0.000779 -0.026412
v -0.000963 0.000450 -0.026094
v -0.000932 -0.000000 -0.025977
v -0.000963 -0.000450 -0.026094
v -0.001048 -0.000779 -0.026412
v -0.001165 -0.000900 -0.026847
v -0.001281 -0.000779 -0.027281
v -0.001366 -0.000450 -0.027600
v -0.002700 -0.000000 -0.027177
v -0.002640 0.000450 -0.027072
v -0.002475 0.000779 -0.026787
v -0.002250 0.000900 -0.026397
v -0.002025 0.000779 -0.026007
v -0.001860 0.000450 -0.025722
v -0.001800 -0.000000 -0.025618
v -0.001860 -0.000450 -0.025722
v -0.002025 -0.000779 -0.026007
v -0.002250 -0.000900 -0.026397
v -0.002475 -0.000779 -0.026787
v -0.002640 -0.000450 -0.027072
v -0.003818 -0.000000 -0.026318
v -0.003733 0.000450 -0.026233
v -0.003500 0.000779 -0.026000
v -0.003182 0.000900 -0.025682
v -0.002864 0.000779 -0.025364
v -0.002631 0.000450 -0.025131
v -0.002546 -0.000000 -0.025046
v -0.002631 -0.000450 -0.025131
v -0.002864 -0.000779 -0.025364
v -0.003182 -0.000900 -0.025682
v -0.003500 -0.000779 -0.026000
v -0.003733 -0.000450 -0.026233
v -0.004677 -0.000000 -0.025200
v -0.004572 0.000450 -0.025140
v -0.004287 0.000779 -0.024975
v -0.003897 0.000900 -0.024750
v -0.003507 0.000779 -0.024525
v -0.003222 0.000450 -0.024360
v -0.003118 -0.000000 -0.024300
v -0.003222 -0.000450 -0.024360
v -0.003507 -0.000779 -0.024525
v -0.003897 -0.000900 -0.024750
v -0.004287 -0.000779 -0.024975
v -0.004572 -0.000450 -0.025140
v -0.005216 -0.000000 -0.023898
v -0.005100 0.000450 -0.023866
v -0.004781 0.000779 -0.023781
v -0.004347 0.000900 -0.023665
v -0.003912 0.000779 -0.023548
v -0.003594 0.000450 -0.023463
v -0.003477 -0.000000 -0.023432
v -0.003594 -0.000450 -0.023463
v -0.003912 -0.000779 -0.023548
v -0.004347 -0.000900 -0.023665
v -0.004781 -0.000779 -0.023781
v -0.005100 -0.000450 -0.023866
v -0.005400 -0.000000 -0.022500
v -0.005279 0.000450 -0.022500
v -0.004950 0.000779 -0.022500
v -0.004500 0.000900 -0.022500
v -0.004050 0.000779 -0.022500
v -0.003721 0.000450 -0.022500
v -0.003600 -0.000000 -0.022500
v -0.003721 -0.000450 -0.022500
v -0.004050 -0.000779 -0.022500
v -0.004500 -0.000900 -0.022500
v -0.004950 -0.000779 -0.022500
v -0.005279 -0.000450 -0.022500
vn -0.0000 1.0000 -0.0000
vn -0.0000 -0.0000 1.0000
vn -1.0000 -0.0000 -0.0000
vn -0.0000 -1.0000 -0.0000
vn 1.0000 -0.0000 -0.0000
vn -0.0000 -0.0000 -1.0000
vn 0.9582 0.2568 -0.1262
vn 0.7041 0.7041 -0.0927
vn 0.2587 0.9654 -0.0341
vn -0.2587 0.9654 0.0341
vn -0.7041 0.7041 0.0927
vn -0.9582 0.2568 0.1262
vn -0.9582 -0.2568 0.1262
vn -0.7041 -0.7041 0.0927
vn -0.2587 -0.9654 0.0341
vn 0.2587 -0.9654 -0.0341
vn 0.7041 -0.7041 -0.0927
vn 0.9582 -0.2568 -0.1262
vn 0.8929 0.2567 -0.3699
vn 0.6561 0.7041 -0.2718
vn 0.2410 0.9654 -0.0998
vn -0.2410 0.9654 0.0998
vn -0.6561 0.7041 0.2718
vn -0.8929 0.2568 0.3699
vn -0.8929 -0.2568 0.3699
vn -0.6561 -0.7041 0.2718
vn -0.2410 -0.9654 0.0998
vn 0.2410 -0.9654 -0.0998
vn 0.6561 -0.7041 -0.2718
vn 0.8929 -0.2567 -0.3699
vn 0.7668 0.2567 -0.5884
vn 0.5634 0.7041 -0.4323
vn 0.2070 0.9654 -0.1588
vn -0.2070 0.9654 0.1588
vn -0.5634 0.7041 0.4323
vn -0.7668 0.2567 0.5884
vn -0.7668 -0.2567 0.5884
vn -0.5634 -0.7041 0.4323
vn -0.2070 -0.9654 0.1588
vn 0.2070 -0.9654 -0.1588
vn 0.5634 -0.7041 -0.4323
vn 0.7668 -0.2567 -0.5884
vn 0.5884 0.2568 -0.7668
vn 0.4323 0.7041 -0.5634
vn 0.1588 0.9654 -0.2070
vn -0.1588 0.9654 0.2070
vn -0.4323 0.7041 0.5634
vn -0.5884 0.2567 0.7668
vn -0.5884 -0.2567 0.7668
vn -0.4323 -0.7041 0.5634
vn -0.1588 -0.9654 0.2070
vn 0.1588 -0.9654 -0.2070
vn 0.4323 -0.7041 -0.5634
vn 0.5884 -0.2568 -0.7668
vn 0.3699 0.2567 -0.8929
vn 0.2718 0.7041 -0.6561
vn 0.0998 0.9654 -0.2410
vn -0.0998 0.9654 0.2410
vn -0.2718 0.7041 0.6561
vn -0.3699 0.2567 0.8929
vn -0.3699 -0.2567 0.8929
vn -0.2718 -0.7041 0.6561
vn -0.0998 -0.9654 0.2410
vn 0.0998 -0.9654 -0.2410
vn 0.2718 -0.7041 -0.6561
vn 0.3699 -0.2567 -0.8929
vn 0.1262 0.2568 -0.9582
vn 0.0927 0.7041 -0.7041
vn 0.0341 0.9654 -0.2587
vn -0.0341 0.9654 0.2587
vn -0.0927 0.7041 0.7041
vn -0.1262 0.2568 0.9582
vn -0.1262 -0.2568 0.9582
vn -0.0927 -0.7041 0.7041
vn -0.0341 -0.9654 0.2587
vn 0.0341 -0.9654 -0.2587
vn 0.0927 -0.7041 -0.7041
vn 0.1262 -0.2568 -0.9582
vn -0.1262 0.2567 -0.9582
vn -0.0927 0.7041 -0.7041
vn -0.0341 0.9654 -0.2587
vn 0.0341 0.9654 0.2587
vn 0.0927 0.7041 0.7041
vn 0.1262 0.2568 0.9582
vn 0.1262 -0.2568 0.9582
vn 0.0927 -0.7041 0.7041
vn 0.0341 -0.9654 0.2587
vn -0.0341 -0.9654 -0.2587
vn -0.0927 -0.7041 -0.7041
vn -0.1262 -0.2567 -0.9582
vn -0.3699 0.2568 -0.8929
vn -0.2718 0.7041 -0.6561
vn -0.0998 0.9654 -0.2410
vn 0.0998 0.9654 0.2410
vn 0.2718 0.7041 0.6561
vn 0.3699 0.2567 0.8929
vn 0.3699 -0.2567 0.8929
vn 0.2718 -0.7041 0.6561
vn 0.0998 -0.9654 0.2410
vn -0.0998 -0.9654 -0.2410
vn -0.2718 -0.7041 -0.6561
vn -0.3699 -0.2568 -0.8929
vn -0.5884 0.2568 -0.7668
vn -0.4323 0.7041 -0.5634
vn -0.1588 0.9654 -0.2070
vn 0.1588 0.9654 0.2070
vn 0.4323 0.7041 0.5634
vn 0.5884 0.2567 0.7668
vn 0.5884 -0.2568 0.7668
vn 0.4323 -0.7041 0.5634
vn 0.1588 -0.9654 0.2070
vn -0.1588 -0.9654 -0.2070
vn -0.4323 -0.7041 -0.5634
vn -0.5884 -0.2568 -0.7668
vn -0.7668 0.2568 -0.5884
vn -0.5634 0.7041 -0.4323
vn -0.2070 0.9654 -0.1588
vn 0.2070 0.9654 0.1588
vn 0.5634 0.7041 0.4323
vn 0.7668 0.2567 0.5884
vn 0.7668 -0.2567 0.5884
vn 0.5634 -0.7041 0.4323
vn 0.2070 -0.9654 0.1588
vn -0.2070 -0.9654 -0.1588
vn -0.5634 -0.7041 -0.4323
vn -0.7668 -0.2568 -0.5884
vn -0.8929 0.2568 -0.3699
vn -0.6561 0.7041 -0.2718
vn -0.2410 0.9654 -0.0998
vn 0.2410 0.9654 0.0998
vn 0.6561 0.7041 0.2718
vn 0.8929 0.2568 0.3699
vn 0.8929 -0.2568 0.3699
vn 0.6561 -0.7041 0.2718
vn 0.2410 -0.9654 0.0998
vn -0.2410 -0.9654 -0.0998
vn -0.6561 -0.7041 -0.2718
vn -0.8929 -0.2568 -0.3699
vn -0.9582 0.2568 -0.1262
vn -0.7041 0.7041 -0.0927
vn -0.2587 0.9654 -0.0341
vn 0.2587 0.9654 0.0341
vn 0.7041 0.7041 0.0927
vn 0.9582 0.2568 0.1262
vn 0.9582 -0.2568 0.1262
vn 0.7041 -0.7041 0.0927
vn 0.2587 -0.9654 0.0341
vn -0.2587 -0.9654 -0.0341
vn -0.7041 -0.7041 -0.0927
vn -0.9582 -0.2568 -0.1262
vt 0.625000 0.500000
vt 0.875000 0.500000
vt 0.875000 0.750000
vt 0.625000 0.750000
vt 0.375000 0.750000
vt 0.625000 1.000000
vt 0.375000 1.000000
vt 0.375000 0.000000
vt 0.625000 0.000000
vt 0.625000 0.250000
vt 0.375000 0.250000
vt 0.125000 0.500000
vt 0.375000 0.500000
vt 0.125000 0.750000
vt 0.495670 0.347500
vt 0.504330 0.347500
vt 0.502500 0.345670
vt 0.500000 0.345000
vt 0.497500 0.345670
vt 0.502500 0.404330
vt 0.504330 0.402500
vt 0.495670 0.402500
vt 0.497500 0.404330
vt 0.500000 0.405000
vt 0.495000 0.350000
vt 0.495670 0.352500
vt 0.497500 0.354330
vt 0.500000 0.355000
vt 0.502500 0.354330
vt 0.504330 0.352500
vt 0.505000 0.350000
vt 0.505000 0.400000
vt 0.504330 0.397500
vt 0.502500 0.395670
vt 0.500000 0.395000
vt 0.497500 0.395670
vt 0.495670 0.397500
vt 0.495000 0.400000
vt 0.500000 0.500000
vt 0.541667 0.500000
vt 0.541667 0.583333
vt 0.500000 0.583333
vt 0.541667 0.666667
vt 0.500000 0.666667
vt 0.541667 0.750000
vt 0.500000 0.750000
vt 0.541667 0.833333
vt 0.500000 0.833333
vt 0.541667 0.916667
vt 0.500000 0.916667
vt 0.541667 1.000000
vt 0.500000 1.000000
vt 0.500000 0.000000
vt 0.541667 0.000000
vt 0.541667 0.083333
vt 0.500000 0.083333
vt 0.541667 0.166667
vt 0.500000 0.166667
vt 0.541667 0.250000
vt 0.500000 0.250000
vt 0.541667 0.333333
vt 0.500000 0.333333
vt 0.541667 0.416667
vt 0.500000 0.416667
vt 0.583333 0.500000
vt 0.583333 0.583333
vt 0.583333 0.666667
vt 0.583333 0.750000
vt 0.583333 0.833333
vt 0.583333 0.916667
vt 0.583333 1.000000
vt 0.583333 0.000000
vt 0.583333 0.083333
vt 0.583333 0.166667
vt 0.583333 0.250000
vt 0.583333 0.333333
vt 0.583333 0.416667
vt 0.625000 0.583333
vt 0.625000 0.666667
vt 0.625000 0.833333
vt 0.625000 0.916667
vt 0.625000 0.000000
vt 0.625000 0.083333
vt 0.625000 0.166667
vt 0.625000 0.333333
vt 0.625000 0.416667
vt 0.666667 0.500000
vt 0.666667 0.583333
vt 0.666667 0.666667
vt 0.666667 0.750000
vt 0.666667 0.833333
vt 0.666667 0.916667
vt 0.666667 1.000000
vt 0.666667 0.000000
vt 0.666667 0.083333
vt 0.666667 0.166667
vt 0.666667 0.250000
vt 0.666667 0.333333
vt 0.666667 0.416667
vt 0.708333 0.500000
vt 0.708333 0.583333
vt 0.708333 0.666667
vt 0.708333 0.750000
vt 0.708333 0.833333
vt 0.708333 0.916667
vt 0.708333 1.000000
vt 0.708333 0.000000
vt 0.708333 0.083333
vt 0.708333 0.166667
vt 0.708333 0.250000
vt 0.708333 0.333333
vt 0.708333 0.416667
vt 0.750000 0.500000
vt 0.750000 0.583333
vt 0.750000 0.666667
vt 0.750000 0.750000
vt 0.750000 0.833333
vt 0.750000 0.916667
vt 0.750000 1.000000
vt 0.750000 0.000000
vt 0.750000 0.083333
vt 0.750000 0.166667
vt 0.750000 0.250000
vt 0.750000 0.333333
vt 0.750000 0.416667
vt 0.791667 0.500000
vt 0.791667 0.583333
vt 0.791667 0.666667
vt 0.791667 0.750000
vt 0.791667 0.833333
vt 0.791667 0.916667
vt 0.791667 1.000000
vt 0.791667 0.000000
vt 0.791667 0.083333
vt 0.791667 0.166667
vt 0.791667 0.250000
vt 0.791667 0.333333
vt 0.791667 0.416667
vt 0.833333 0.500000
vt 0.833333 0.583333
vt 0.833333 0.666667
vt 0.833333 0.750000
vt 0.833333 0.833333
vt 0.833333 0.916667
vt 0.833333 1.000000
vt 0.833333 0.000000
vt 0.833333 0.083333
vt 0.833333 0.166667
vt 0.833333 0.250000
vt 0.833333 0.333333
vt 0.833333 0.416667
vt 0.875000 0.583333
vt 0.875000 0.666667
vt 0.875000 0.833333
vt 0.875000 0.916667
vt 0.875000 1.000000
vt 0.875000 0.000000
vt 0.875000 0.083333
vt 0.875000 0.166667
vt 0.875000 0.250000
vt 0.875000 0.333333
vt 0.875000 0.416667
vt 0.916667 0.500000
vt 0.916667 0.583333
vt 0.916667 0.666667
vt 0.916667 0.750000
vt 0.916667 0.833333
vt 0.916667 0.916667
vt 0.916667 1.000000
vt 0.916667 0.000000
vt 0.916667 0.083333
vt 0.916667 0.166667
vt 0.916667 0.250000
vt 0.916667 0.333333
vt 0.916667 0.416667
vt 0.958333 0.500000
vt 0.958333 0.583333
vt 0.958333 0.666667
vt 0.958333 0.750000
vt 0.958333 0.833333
vt 0.958333 0.916667
vt 0.958333 1.000000
vt 0.958333 0.000000
vt 0.958333 0.083333
vt 0.958333 0.166667
vt 0.958333 0.250000
vt 0.958333 0.333333
vt 0.958333 0.416667
vt 1.000000 0.500000
vt 1.000000 0.583333
vt 1.000000 0.666667
vt 1.000000 0.750000
vt 1.000000 0.833333
vt 1.000000 0.916667
vt 1.000000 1.000000
vt 1.000000 0.000000
vt 1.000000 0.083333
vt 1.000000 0.166667
vt 1.000000 0.250000
vt 1.000000 0.333333
vt 1.000000 0.416667
s 1
usemtl Material.001
f 1/1/1 9/2/1 13/3/1 5/4/1
f 7/5/2 5/4/2 13/6/2 15/7/2
f 15/8/3 13/9/3 9/10/3 11/11/3
f 11/12/4 3/13/4 7/5/4 15/14/4
f 3/13/5 1/1/5 5/4/5 7/5/5
f 163/15/6 11/11/6 9/10/6 155/16/6 154/17/6 153/18/6 164/19/6
f 4/20/6 6/21/6 1/1/6 3/13/6 19/22/6 20/23/6 2/24/6
f 3/13/6 11/11/6 163/15/6 162/25/6 161/26/6 160/27/6 159/28/6 158/29/6 157/30/6 156/31/6 155/16/6 9/10/6 1/1/6 6/21/6 8/32/6 10/33/6 12/34/6 14/35/6 16/36/6 17/37/6 18/38/6 19/22/6
f 2/39/7 21/40/7 22/41/7 4/42/7
f 4/42/8 22/41/8 23/43/8 6/44/8
f 6/44/9 23/43/9 24/45/9 8/46/9
f 8/46/10 24/45/10 25/47/10 10/48/10
f 10/48/11 25/47/11 26/49/11 12/50/11
f 12/50/12 26/49/12 27/51/12 14/52/12
f 14/53/13 27/54/13 28/55/13 16/56/13
f 16/56/14 28/55/14 29/57/14 17/58/14
f 17/58/15 29/57/15 30/59/15 18/60/15
f 18/60/16 30/59/16 31/61/16 19/62/16
f 19/62/17 31/61/17 32/63/17 20/64/17
f 20/64/18 32/63/18 21/40/18 2/39/18
f 21/40/19 33/65/19 34/66/19 22/41/19
f 22/41/20 34/66/20 35/67/20 23/43/20
f 23/43/21 35/67/21 36/68/21 24/45/21
f 24/45/22 36/68/22 37/69/22 25/47/22
f 25/47/23 37/69/23 38/70/23 26/49/23
f 26/49/24 38/70/24 39/71/24 27/51/24
f 27/54/25 39/72/25 40/73/25 28/55/25
f 28/55/26 40/73/26 41/74/26 29/57/26
f 29/57/27 41/74/27 42/75/27 30/59/27
f 30/59/28 42/75/28 43/76/28 31/61/28
f 31/61/29 43/76/29 44/77/29 32/63/29
f 32/63/30 44/77/30 33/65/30 21/40/30
f 33/65/31 45/1/31 46/78/31 34/66/31
f 34/66/32 46/78/32 47/79/32 35/67/32
f 35/67/33 47/79/33 48/4/33 36/68/33
f 36/68/34 48/4/34 49/80/34 37/69/34
f 37/69/35 49/80/35 50/81/35 38/70/35
f 38/70/36 50/81/36 51/6/36 39/71/36
f 39/72/37 51/82/37 52/83/37 40/73/37
f 40/73/38 52/83/38 53/84/38 41/74/38
f 41/74/39 53/84/39 54/10/39 42/75/39
f 42/75/40 54/10/40 55/85/40 43/76/40
f 43/76/41 55/85/41 56/86/41 44/77/41
f 44/77/42 56/86/42 45/1/42 33/65/42
f 45/1/43 57/87/43 58/88/43 46/78/43
f 46/78/44 58/88/44 59/89/44 47/79/44
f 47/79/45 59/89/45 60/90/45 48/4/45
f 48/4/46 60/90/46 61/91/46 49/80/46
f 49/80/47 61/91/47 62/92/47 50/81/47
f 50/81/48 62/92/48 63/93/48 51/6/48
f 51/82/49 63/94/49 64/95/49 52/83/49
f 52/83/50 64/95/50 65/96/50 53/84/50
f 53/84/51 65/96/51 66/97/51 54/10/51
f 54/10/52 66/97/52 67/98/52 55/85/52
f 55/85/53 67/98/53 68/99/53 56/86/53
f 56/86/54 68/99/54 57/87/54 45/1/54
f 57/87/55 69/100/55 70/101/55 58/88/55
f 58/88/56 70/101/56 71/102/56 59/89/56
f 59/89/57 71/102/57 72/103/57 60/90/57
f 60/90/58 72/103/58 73/104/58 61/91/58
f 61/91/59 73/104/59 74/105/59 62/92/59
f 62/92/60 74/105/60 75/106/60 63/93/60
f 63/94/61 75/107/61 76/108/61 64/95/61
f 64/95/62 76/108/62 77/109/62 65/96/62
f 65/96/63 77/109/63 78/110/63 66/97/63
f 66/97/64 78/110/64 79/111/64 67/98/64
f 67/98/65 79/111/65 80/112/65 68/99/65
f 68/99/66 80/112/66 69/100/66 57/87/66
f 69/100/67 81/113/67 82/114/67 70/101/67
f 70/101/68 82/114/68 83/115/68 71/102/68
f 71/102/69 83/115/69 84/116/69 72/103/69
f 72/103/70 84/116/70 85/117/70 73/104/70
f 73/104/71 85/117/71 86/118/71 74/105/71
f 74/105/72 86/118/72 87/119/72 75/106/72
f 75/107/73 87/120/73 88/121/73 76/108/73
f 76/108/74 88/121/74 89/122/74 77/109/74
f 77/109/75 89/122/75 90/123/75 78/110/75
f 78/110/76 90/123/76 91/124/76 79/111/76
f 79/111/77 91/124/77 92/125/77 80/112/77
f 80/112/78 92/125/78 81/113/78 69/100/78
f 81/113/79 93/126/79 94/127/79 82/114/79
f 82/114/80 94/127/80 95/128/80 83/115/80
f 83/115/81 95/128/81 96/129/81 84/116/81
f 84/116/82 96/129/82 97/130/82 85/117/82
f 85/117/83 97/130/83 98/131/83 86/118/83
f 86/118/84 98/131/84 99/132/84 87/119/84
f 87/120/85 99/133/85 100/134/85 88/121/85
f 88/121/86 100/134/86 101/135/86 89/122/86
f 89/122/87 101/135/87 102/136/87 90/123/87
f 90/123/88 102/136/88 103/137/88 91/124/88
f 91/124/89 103/137/89 104/138/89 92/125/89
f 92/125/90 104/138/90 93/126/90 81/113/90
f 93/126/91 105/139/91 106/140/91 94/127/91
f 94/127/92 106/140/92 107/141/92 95/128/92
f 95/128/93 107/141/93 108/142/93 96/129/93
f 96/129/94 108/142/94 109/143/94 97/130/94
f 97/130/95 109/143/95 110/144/95 98/131/95
f 98/131/96 110/144/96 111/145/96 99/132/96
f 99/133/97 111/146/97 112/147/97 100/134/97
f 100/134/98 112/147/98 113/148/98 101/135/98
f 101/135/99 113/148/99 114/149/99 102/136/99
f 102/136/100 114/149/100 115/150/100 103/137/100
f 103/137/101 115/150/101 116/151/101 104/138/101
f 104/138/102 116/151/102 105/139/102 93/126/102
f 105/139/103 117/2/103 118/152/103 106/140/103
f 106/140/104 118/152/104 119/153/104 107/141/104
f 107/141/105 119/153/105 120/3/105 108/142/105
f 108/142/106 120/3/106 121/154/106 109/143/106
f 109/143/107 121/154/107 122/155/107 110/144/107
f 110/144/108 122/155/108 123/156/108 111/145/108
f 111/146/109 123/157/109 124/158/109 112/147/109
f 112/147/110 124/158/110 125/159/110 113/148/110
f 113/148/111 125/159/111 126/160/111 114/149/111
f 114/149/112 126/160/112 127/161/112 115/150/112
f 115/150/113 127/161/113 128/162/113 116/151/113
f 116/151/114 128/162/114 117/2/114 105/139/114
f 117/2/115 129/163/115 130/164/115 118/152/115
f 118/152/116 130/164/116 131/165/116 119/153/116
f 119/153/117 131/165/117 132/166/117 120/3/117
f 120/3/118 132/166/118 133/167/118 121/154/118
f 121/154/119 133/167/119 134/168/119 122/155/119
f 122/155/120 134/168/120 135/169/120 123/156/120
f 123/157/121 135/170/121 136/171/121 124/158/121
f 124/158/122 136/171/122 137/172/122 125/159/122
f 125/159/123 137/172/123 138/173/123 126/160/123
f 126/160/124 138/173/124 139/174/124 127/161/124
f 127/161/125 139/174/125 140/175/125 128/162/125
f 128/162/126 140/175/126 129/163/126 117/2/126
f 129/163/127 141/176/127 142/177/127 130/164/127
f 130/164/128 142/177/128 143/178/128 131/165/128
f 131/165/129 143/178/129 144/179/129 132/166/129
f 132/166/130 144/179/130 145/180/130 133/167/130
f 133/167/131 145/180/131 146/181/131 134/168/131
f 134/168/132 146/181/132 147/182/132 135/169/132
f 135/170/133 147/183/133 148/184/133 136/171/133
f 136/171/134 148/184/134 149/185/134 137/172/134
f 137/172/135 149/185/135 150/186/135 138/173/135
f 138/173/136 150/186/136 151/187/136 139/174/136
f 139/174/137 151/187/137 152/188/137 140/175/137
f 140/175/138 152/188/138 141/176/138 129/163/138
f 141/176/139 153/189/139 154/190/139 142/177/139
f 142/177/140 154/190/140 155/191/140 143/178/140
f 143/178/141 155/191/141 156/192/141 144/179/141
f 144/179/142 156/192/142 157/193/142 145/180/142
f 145/180/143 157/193/143 158/194/143 146/181/143
f 146/181/144 158/194/144 159/195/144 147/182/144
f 147/183/145 159/196/145 160/197/145 148/184/145
f 148/184/146 160/197/146 161/198/146 149/185/146
f 149/185/147 161/198/147 162/199/147 150/186/147
f 150/186/148 162/199/148 163/200/148 151/187/148
f 151/187/149 163/200/149 164/201/149 152/188/149
f 152/188/150 164/201/150 153/189/150 141/176/150
